<?xml version="1.0" encoding="UTF-8"?>
<svg version="1.1" viewBox="0 0 900 900" width="1280" height="1280" xmlns="http://www.w3.org/2000/svg">
<path transform="translate(0)" d="m0 0h900v900h-900z" fill="#fff"/>
<path transform="translate(441,48)" d="m0 0 6 4 13 13 9 11 11 16 8 14 8 16 8 21 6 21 4 23 2 19v21l-4 31-5 20-12 42-9 40-4 26-1 10v39l3 19 4 15 7 14 8 10 10 7 6 2h14l8-4 6-7 4-8 2-10v-11l-3-19-10-36-5-24-3-19v-43l4-22 4-15 2-1 4 18 7 16 6 11 8 12 14 19 26 32 11 14 13 16 13 18 14 20 13 21 12 23 8 21 6 24 3 18 1 14v24l-1 15-5 27-8 26-9 21-12 22-10 14-7 9-10 11-7 8-13 12-14 11-16 11-17 10-16 8-23 10-5 1 5-5 10-9 9-9 10-13 10-15 10-19 8-20 6-20 5-24 1-7 1-19v-12l-2-21-4-19-5-16-7-16-10-18-10-13-7-8v3l3 9v17l-3 12-3 6-9 10-10 6-9 3-10 1-16-4-16-8-13-11-10-12-8-13-7-16-5-16-3-12-2-15v-31l3-21 5-17 5-11-1-1-8 10-7 10-8 16-7 19-5 17-4 25v32l10 70 1 10v29l-3 9-4 6-8 7-12 4h-7l-13-5-7-8-2-5v-13l9-34 4-20 1-11v-17l-2-13-7-19-4-4v14l-5 16-8 16-6 11-24 36-9 17-5 15-4 21v27l3 17 5 17 10 21 11 16 12 14 7 7 8 7 13 10 9 6-3 1-38-18-21-13-14-10-16-13-8-8-8-7-11-12-11-14-10-14-9-15-11-21-10-25-6-21-5-25-2-14-1-13v-30l2-19 4-25 7-28 11-32 15-33 13-24 12-19 10-15 14-19 10-13 14-18 12-14 9-11 11-13 9-11 11-14 11-15 9-14 8-15 3-8 2 1v19l-5 20-5 17-1 5v7l4 10 6 4 10 1 11-2 12-6 8-7 9-13 8-17 5-18 3-16 1-9v-37l-4-32-6-28-8-29z" fill="#010101"/>
<path transform="translate(378,448)" d="m0 0h8l6 3 6 7 2 9-1 11-4 4-16 1-6-3-4-6-1-4v-11l6-8z" fill="#010101"/>
<path transform="translate(299,437)" d="m0 0h7l1 1v32l-3 8-5 4-2 1h-9l-7-4-4-6-1-4v-7l4-8 5-4 4-2h5v2l-10 4-4 6v9l3 7 4 3h9l4-3h2l1-7v-28l-3-2-1 31-3 5-4 1-7-3-1-2v-9l5-6 6-3 1-12z" fill="#1F1F1F"/>
<path transform="translate(346,448)" d="m0 0h7l6 4 3 4-1 5-2-1-3-6-7-3-7 3-3 4-1 7 2 9 5 5 2 1h12l2-5h-15l-5-4-1-2v-6l5-5 3-2h4v6l-3-1-2 2v7l6 2h10l1 2v6l-3 3-4 1h-9l-7-3-6-7-2-5 1-9 4-6 6-5z" fill="#1E1E1E"/>
<path transform="translate(322,448)" d="m0 0 6 1 1 6-3 4-1 3-2 17-3 4-7-1-1-1v-19l3-9 4-4z" fill="#1F1F1F"/>
<path transform="translate(592,448)" d="m0 0 9 1 5 4 2 7-3 1-3-7-5-3-7 1-5 6-1 2v10l4 7 6 4h5l3-4v-2h-11l-3-5-1-4 2-9 3-2 2 1 3 9 1 4-7-2 1 4 4 1 7 1 2 2-1 5-4 4h-7l-7-4-4-5-2-12 3-9z" fill="#1F1F1F"/>
<path transform="translate(299,437)" d="m0 0h7l1 1v32l-3 8-5 4-2 1h-9l-7-4-4-6-1-4v-7l4-8 5-4 4-2h5v2l-10 4-4 6v9l3 7 4 3h9l4-3h2l1-7v-28l-3-2-2-1z" fill="#1F1F1F"/>
<path transform="translate(378,448)" d="m0 0h8l6 3 6 7 2 9-1 11-4 4-16 1-6-3-4-6-1-4v-11l6-8zm5 2-8 3-3 4-1 4 1 11 4 6 5 3h10l5-4 1-5v-8l-5-10-8-4z" fill="#1F1F1F"/>
<path transform="translate(382,456)" d="m0 0 5 1 3 3 1 3v10l-4 4-5-1-5-3-1-7 1-7z" fill="#1F1F1F"/>
<path transform="translate(292,456)" d="m0 0h4l1 10-1 6-7 1-3-3 1-9z" fill="#010101"/>
<path transform="translate(591,455)" d="m0 0 3 1 3 9 1 4-7-2 1 4 4 1h5l1 2-2 1h-9l-3-5-1-4 2-9z" fill="#1A1A1A"/>
<path transform="translate(320,450)" d="m0 0 4 1-2 13-3 15-3-1v-19z" fill="#010101"/>
<path transform="translate(380,459)" d="m0 0h6l2 2 1 10-2 2h-6l-2-2v-11z" fill="#010101"/>
<path transform="translate(616,470)" d="m0 0 5 2 2 3-1 7-1 1h-7l-1-7z" fill="#191919"/>
<path transform="translate(477,452)" d="m0 0 1 3-2 3h-2l-3 11-4 9-4 4-6 2-1-2 8-5 6-16 1-5 4 1z" fill="#1F1F1F"/>
<path transform="translate(446,455)" d="m0 0h1v19l-1 9h-4l1-11 2-16z" fill="#1F1F1F"/>
<path transform="translate(470,448)" d="m0 0v3l-6 9-4 13-5 4-1 6h-2l1-8 5-4 4-14 4-6z" fill="#1F1F1F"/>
<path transform="translate(323,448)" d="m0 0 5 1 1 6-5 3-1-1v-6z" fill="#1C1C1C"/>
<path transform="translate(593,459)" d="m0 0h2l3 7-1 3-3-1-1-2z" fill="#1F1F1F"/>
<path transform="translate(569,452)" d="m0 0 5 5 1 9-2-2-2-6-2-2z" fill="#1F1F1F"/>
</svg>
